<svg
width="20"
height="20"
viewBox="0 0 20 20"
fill="none"
xmlns="http://www.w3.org/2000/svg"
>
<path
  d="M9.95813 16.6248C9.4979 16.6248 9.1248 16.2517 9.1248 15.7915L9.1248 4.1248C9.1248 3.66456 9.4979 3.29146 9.95813 3.29146C10.4184 3.29146 10.7915 3.66456 10.7915 4.1248L10.7915 15.7915C10.7915 16.2517 10.4184 16.6248 9.95813 16.6248Z"
  fill="white"
/>
<path
  d="M16.6248 9.95812C16.6248 9.49789 16.2517 9.12479 15.7915 9.12479L4.12481 9.12479C3.66457 9.12479 3.29147 9.49789 3.29147 9.95812C3.29147 10.4184 3.66457 10.7915 4.12481 10.7915L15.7915 10.7915C16.2517 10.7915 16.6248 10.4184 16.6248 9.95812Z"
  fill="white"
/>
</svg>